<?xml version="1.0" encoding="UTF-8" standalone="no"?>
<!-- Created with Inkscape (http://www.inkscape.org/) -->

<svg
   width="76mm"
   height="79mm"
   viewBox="0 0 287.24389 298.58312"
   version="1.1"
   id="svg1"
   xml:space="preserve"
   inkscape:version="1.3 (0e150ed6c4, 2023-07-21)"
   sodipodi:docname="dino.svg"
   xmlns:inkscape="http://www.inkscape.org/namespaces/inkscape"
   xmlns:sodipodi="http://sodipodi.sourceforge.net/DTD/sodipodi-0.dtd"
   xmlns="http://www.w3.org/2000/svg"
   xmlns:svg="http://www.w3.org/2000/svg"><sodipodi:namedview
     id="namedview1"
     pagecolor="#505050"
     bordercolor="#eeeeee"
     borderopacity="1"
     inkscape:showpageshadow="0"
     inkscape:pageopacity="0"
     inkscape:pagecheckerboard="0"
     inkscape:deskcolor="#505050"
     inkscape:document-units="mm"
     inkscape:zoom="1.4142136"
     inkscape:cx="143.89623"
     inkscape:cy="149.55308"
     inkscape:window-width="1920"
     inkscape:window-height="1009"
     inkscape:window-x="1912"
     inkscape:window-y="-8"
     inkscape:window-maximized="1"
     inkscape:current-layer="layer2" /><defs
     id="defs1" /><g
     inkscape:groupmode="layer"
     id="layer2"
     inkscape:label="Calque 2"><path
       id="path1"
       style="display:inline;opacity:1;fill:#4e4e4e;fill-opacity:1;fill-rule:evenodd;stroke-width:1.047;paint-order:stroke markers fill"
       inkscape:label="path1"
       d="m 170.97644,1.81402 v 12.08203 h -13.97851 v 80.94336 h -11.56445 v 10.70118 h -10.18165 v 16.22266 h -21.74609 v 15.36133 H 91.931525 v 12.42578 H 76.052612 v 14.15234 h -32.44531 v -13.28906 h -13.98047 v -12.94531 h -13.46289 v -27.95899 l -14.8417994,0.17383 v 79.5625 H 17.027222 v 15.1875 h 14.49805 v 12.08204 h 13.28906 v 12.77148 h 16.22461 v 14.66992 h 14.8418 v 52.8125 H 104.70301 V 284.68708 H 90.722545 V 271.74372 H 104.70301 V 256.7281 h 14.15234 v -13.28907 h 16.05078 1.89844 v 12.94336 h 13.28906 v 40.21485 h 28.30469 v -11.39258 h -13.80664 v -56.60938 h 13.98047 v -12.08007 h 14.15234 v -21.40039 h 16.05078 v -46.42774 h 14.8418 v 12.42773 h 15.70508 V 137.12458 H 208.42957 V 93.80426 h 50.91406 V 80.16949 h 26.57813 V 13.20464 H 273.15028 V 1.81402 Z m 39.0918,16.39648 V 44.87457 H 182.5409 V 18.29644 Z m -19.76172,9.06055 v 9.92383 h 12.68555 v -9.83789 z" /></g></svg>
